<?xml version="1.0" encoding="utf-8"?>
<!-- Generator: Adobe Illustrator 24.1.1, SVG Export Plug-In . SVG Version: 6.00 Build 0)  -->
<svg version="1.1" id="Layer_1" xmlns="http://www.w3.org/2000/svg" xmlns:xlink="http://www.w3.org/1999/xlink" x="0px" y="0px"
	 xml:space="preserve">
<style type="text/css">
	.st0{fill-rule:evenodd;clip-rule:evenodd;fill:#089101;}
</style>
<path class="st0" d="M106.54,147.58c-3.1,0-5.79-0.59-8.09-1.76c-2.3-1.18-4.07-2.85-5.32-5.01c-1.25-2.16-1.88-4.7-1.88-7.61
	c0-2.87,0.63-5.4,1.9-7.58c1.27-2.18,3.04-3.88,5.32-5.09c2.28-1.21,4.91-1.82,7.89-1.82c2.05,0,4.01,0.36,5.88,1.09
	c1.87,0.73,3.53,1.8,4.98,3.22l-4.87,5.32c-1.57-1.46-3.41-2.18-5.54-2.18c-2.02,0-3.66,0.64-4.93,1.93
	c-1.27,1.29-1.9,2.98-1.9,5.07s0.62,3.78,1.87,5.07c1.25,1.29,2.9,1.93,4.95,1.93c2.28,0,4.22-0.8,5.82-2.41l4.98,5.26
	C114.52,146.05,110.83,147.58,106.54,147.58 M149.86,146.96H139l-8.45-10.97v10.97h-8.73v-39.19h8.73v22l7.67-10.47h10.02
	l-9.96,13.1L149.86,146.96z M165.09,125.63c-1.75,0-3.18,0.45-4.28,1.34c-1.1,0.9-1.73,2.15-1.88,3.75h12.2
	c-0.11-1.61-0.7-2.86-1.76-3.75C168.31,126.08,166.88,125.63,165.09,125.63z M164.81,118.69c3.02,0,5.64,0.57,7.84,1.71
	c2.2,1.14,3.89,2.74,5.07,4.81c1.18,2.07,1.76,4.49,1.76,7.25c0,0.9-0.09,2-0.28,3.3h-20.32c0.26,1.42,1.03,2.57,2.3,3.44
	c1.27,0.88,2.89,1.32,4.87,1.32c1.38,0,2.72-0.2,4.03-0.62c1.31-0.41,2.43-0.99,3.36-1.74l4.59,4.93c-1.57,1.46-3.42,2.58-5.57,3.36
	c-2.15,0.78-4.43,1.18-6.86,1.18c-3.21,0-5.99-0.59-8.34-1.76c-2.35-1.18-4.16-2.85-5.43-5.01c-1.27-2.16-1.9-4.72-1.9-7.67
	c0-2.84,0.63-5.36,1.88-7.56c1.25-2.2,2.99-3.91,5.23-5.12C159.27,119.3,161.86,118.69,164.81,118.69z M200.08,118.69
	c1.27,0,2.54,0.23,3.81,0.7c1.27,0.47,2.37,1.15,3.3,2.04l-3.69,6.44c-0.78-0.49-1.51-0.84-2.18-1.06
	c-0.67-0.22-1.38-0.34-2.13-0.34c-1.87,0-3.34,0.6-4.42,1.79c-1.08,1.19-1.62,2.95-1.62,5.26v13.44h-8.79v-27.65h7.67l0.67,3.47
	C194.48,120.05,196.94,118.69,200.08,118.69z M56.21,117.35c0.82,0,1.49,0.67,1.49,1.49c0,0.82-0.67,1.49-1.49,1.49
	c-0.82,0-1.49-0.67-1.49-1.49C54.72,118.02,55.39,117.35,56.21,117.35z M41.19,146.96h-8.38v-0.46v-13.37v-26.35v-0.46h0.46
	c4.59,0,11.32-0.33,15.92-0.4c3.87-0.06,16.6-0.44,18.36,4.02l0.1,0.26l-0.18,0.21c-1.75,2.05-3.31,3.84-5.2,5.74l-0.34,0.34
	l-0.34-0.38c-1.44-1.61-2.85-2.57-4.78-3.47c-2.37-1.1-5.24-1.23-7.74-0.53c-0.85,0.24-2.93,0.99-3.7,1.35
	c-1,0.46,2.08,1.22,3.87,2.57c-0.46,0.04-6.7-2.36-7.14-2.23c-1.51,0.46-2.8,1.68-3.48,3.09c-1.64,3.43-1.3,5.95,1.18,8.76
	c4.36,4.95,14.92,8.6,16.36,1.33c4.02-0.29,7.67-5.4,9.27-8.77c2.03-4.28,4.4-6.45,8.3-8.81c-1.12,4.57,2.59,4.12,2.25,7.41
	c-2.47,0.76-4.38,1.1-5.68,3.83c-2.97,6.22-6.96,11.36-13.66,13.37c-4.9,1.47-9.99,1.31-15.03,0.95v12H41.19z M81.67,114.68
	c-1.52,0-2.74-0.44-3.69-1.33c-0.94-0.89-1.41-2.01-1.41-3.38c0-1.41,0.48-2.55,1.44-3.44c0.96-0.89,2.18-1.33,3.66-1.33
	c1.48,0,2.7,0.44,3.66,1.33c0.96,0.89,1.44,2.03,1.44,3.44c0,1.37-0.47,2.49-1.41,3.38C84.41,114.24,83.18,114.68,81.67,114.68z
	 M85.31,103.13c3.35-3.22,3.05-5.45,1.24-10.76c-4.75,3.52-6.34,6.42-2.55,11.04c-0.4-1.05-0.27-1.94,0.01-3.29
	C84.1,101.35,84.41,102.46,85.31,103.13z M86.24,104.09c1.58-2.53,3.02-2.64,6.61-2.21c-1.59,3.46-3.2,4.84-6.61,3.07
	c0.71,0.11,1.26-0.09,2.07-0.44C87.52,104.62,86.78,104.57,86.24,104.09z M77.43,119.31h8.79v27.65h-8.79V119.31z"/>
</svg>
